<?xml version="1.0"?>
<svg xmlns="http://www.w3.org/2000/svg" version="1" viewBox="0 0 24 24" enable-background="new 0 0 24 24">
    <path d="M18,2H6C4.9,2,4,2.9,4,4v16c0,1.1,0.9,2,2,2h12c1.1,0,2-0.9,2-2V4C20,2.9,19.1,2,18,2z M17,12c-0.1,0-0.1,0-0.2,0L16,16H8 l-0.8-4c-0.1,0-0.1,0-0.2,0c-0.6,0-1-0.4-1-1s0.4-1,1-1s1,0.4,1,1c0,0.1,0,0.2-0.1,0.3L10,12l1.6-3.1C11.2,8.7,11,8.4,11,8 c0-0.6,0.4-1,1-1s1,0.4,1,1c0,0.4-0.2,0.7-0.6,0.9L14,12l2.1-0.7c0-0.1-0.1-0.2-0.1-0.3c0-0.6,0.4-1,1-1s1,0.4,1,1S17.6,12,17,12z"/>
</svg>
